<?xml version="1.0" encoding="UTF-8" standalone="yes"?>
<!DOCTYPE svg PUBLIC "-//W3C//DTD SVG 1.0//EN" "http://www.w3.org/TR/2001/REC-SVG-20010904/DTD/svg10.dtd">
<svg height="190mm" style="fill: white; stroke: #000; stroke-width: 5px; stroke-linejoin: miter" viewBox="0 0 3000 5255" width="230mm" xmlns="http://www.w3.org/2000/svg" xmlns:xlink="http://www.w3.org/1999/xlink">
	<polygon points="150,0 350,0 500,250 350,500 150,500 0,250 " style="fill: white; stroke: #000; stroke-width: 5px; stroke-linejoin: miter" />	<text fill="#666" font-size="85" stroke="none" style="font-family: helvetica, arial" text-anchor="middle" x="250" y="90">0101
	</text>
	<polygon points="500,250 700,250 850,500 700,750 500,750 350,500 " style="fill: white; stroke: #000; stroke-width: 5px; stroke-linejoin: miter" />	<text fill="#666" font-size="85" stroke="none" style="font-family: helvetica, arial" text-anchor="middle" x="600" y="340">0201
	</text>
	<polygon points="850,0 1050,0 1200,250 1050,500 850,500 700,250 " style="fill: white; stroke: #000; stroke-width: 5px; stroke-linejoin: miter" />	<text fill="#666" font-size="85" stroke="none" style="font-family: helvetica, arial" text-anchor="middle" x="950" y="90">0301
	</text>
	<polygon points="1200,250 1400,250 1550,500 1400,750 1200,750 1050,500 " style="fill: white; stroke: #000; stroke-width: 5px; stroke-linejoin: miter" />	<text fill="#666" font-size="85" stroke="none" style="font-family: helvetica, arial" text-anchor="middle" x="1300" y="340">0401
	</text>
	<polygon points="1550,0 1750,0 1900,250 1750,500 1550,500 1400,250 " style="fill: white; stroke: #000; stroke-width: 5px; stroke-linejoin: miter" />	<text fill="#666" font-size="85" stroke="none" style="font-family: helvetica, arial" text-anchor="middle" x="1650" y="90">0501
	</text>
	<polygon points="1900,250 2100,250 2250,500 2100,750 1900,750 1750,500 " style="fill: white; stroke: #000; stroke-width: 5px; stroke-linejoin: miter" />	<text fill="#666" font-size="85" stroke="none" style="font-family: helvetica, arial" text-anchor="middle" x="2000" y="340">0601
	</text>
	<polygon points="2250,0 2450,0 2600,250 2450,500 2250,500 2100,250 " style="fill: white; stroke: #000; stroke-width: 5px; stroke-linejoin: miter" />	<text fill="#666" font-size="85" stroke="none" style="font-family: helvetica, arial" text-anchor="middle" x="2350" y="90">0701
	</text>
	<polygon points="2600,250 2800,250 2950,500 2800,750 2600,750 2450,500 " style="fill: white; stroke: #000; stroke-width: 5px; stroke-linejoin: miter" />	<text fill="#666" font-size="85" stroke="none" style="font-family: helvetica, arial" text-anchor="middle" x="2700" y="340">0801
	</text>
	<polygon points="150,500 350,500 500,750 350,1000 150,1000 0,750 " style="fill: white; stroke: #000; stroke-width: 5px; stroke-linejoin: miter" />	<text fill="#666" font-size="85" stroke="none" style="font-family: helvetica, arial" text-anchor="middle" x="250" y="590">0102
	</text>
	<polygon points="500,750 700,750 850,1000 700,1250 500,1250 350,1000 " style="fill: white; stroke: #000; stroke-width: 5px; stroke-linejoin: miter" />	<text fill="#666" font-size="85" stroke="none" style="font-family: helvetica, arial" text-anchor="middle" x="600" y="840">0202
	</text>
	<polygon points="850,500 1050,500 1200,750 1050,1000 850,1000 700,750 " style="fill: white; stroke: #000; stroke-width: 5px; stroke-linejoin: miter" />	<text fill="#666" font-size="85" stroke="none" style="font-family: helvetica, arial" text-anchor="middle" x="950" y="590">0302
	</text>
	<polygon points="1200,750 1400,750 1550,1000 1400,1250 1200,1250 1050,1000 " style="fill: white; stroke: #000; stroke-width: 5px; stroke-linejoin: miter" />	<text fill="#666" font-size="85" stroke="none" style="font-family: helvetica, arial" text-anchor="middle" x="1300" y="840">0402
	</text>
	<polygon points="1550,500 1750,500 1900,750 1750,1000 1550,1000 1400,750 " style="fill: white; stroke: #000; stroke-width: 5px; stroke-linejoin: miter" />	<text fill="#666" font-size="85" stroke="none" style="font-family: helvetica, arial" text-anchor="middle" x="1650" y="590">0502
	</text>
	<polygon points="1900,750 2100,750 2250,1000 2100,1250 1900,1250 1750,1000 " style="fill: white; stroke: #000; stroke-width: 5px; stroke-linejoin: miter" />	<text fill="#666" font-size="85" stroke="none" style="font-family: helvetica, arial" text-anchor="middle" x="2000" y="840">0602
	</text>
	<polygon points="2250,500 2450,500 2600,750 2450,1000 2250,1000 2100,750 " style="fill: white; stroke: #000; stroke-width: 5px; stroke-linejoin: miter" />	<text fill="#666" font-size="85" stroke="none" style="font-family: helvetica, arial" text-anchor="middle" x="2350" y="590">0702
	</text>
	<polygon points="2600,750 2800,750 2950,1000 2800,1250 2600,1250 2450,1000 " style="fill: white; stroke: #000; stroke-width: 5px; stroke-linejoin: miter" />	<text fill="#666" font-size="85" stroke="none" style="font-family: helvetica, arial" text-anchor="middle" x="2700" y="840">0802
	</text>
	<polygon points="150,1000 350,1000 500,1250 350,1500 150,1500 0,1250 " style="fill: white; stroke: #000; stroke-width: 5px; stroke-linejoin: miter" />	<text fill="#666" font-size="85" stroke="none" style="font-family: helvetica, arial" text-anchor="middle" x="250" y="1090">0103
	</text>
	<polygon points="500,1250 700,1250 850,1500 700,1750 500,1750 350,1500 " style="fill: white; stroke: #000; stroke-width: 5px; stroke-linejoin: miter" />	<text fill="#666" font-size="85" stroke="none" style="font-family: helvetica, arial" text-anchor="middle" x="600" y="1340">0203
	</text>
	<polygon points="850,1000 1050,1000 1200,1250 1050,1500 850,1500 700,1250 " style="fill: white; stroke: #000; stroke-width: 5px; stroke-linejoin: miter" />	<text fill="#666" font-size="85" stroke="none" style="font-family: helvetica, arial" text-anchor="middle" x="950" y="1090">0303
	</text>
	<polygon points="1200,1250 1400,1250 1550,1500 1400,1750 1200,1750 1050,1500 " style="fill: white; stroke: #000; stroke-width: 5px; stroke-linejoin: miter" />	<text fill="#666" font-size="85" stroke="none" style="font-family: helvetica, arial" text-anchor="middle" x="1300" y="1340">0403
	</text>
	<polygon points="1550,1000 1750,1000 1900,1250 1750,1500 1550,1500 1400,1250 " style="fill: white; stroke: #000; stroke-width: 5px; stroke-linejoin: miter" />	<text fill="#666" font-size="85" stroke="none" style="font-family: helvetica, arial" text-anchor="middle" x="1650" y="1090">0503
	</text>
	<polygon points="1900,1250 2100,1250 2250,1500 2100,1750 1900,1750 1750,1500 " style="fill: white; stroke: #000; stroke-width: 5px; stroke-linejoin: miter" />	<text fill="#666" font-size="85" stroke="none" style="font-family: helvetica, arial" text-anchor="middle" x="2000" y="1340">0603
	</text>
	<polygon points="2250,1000 2450,1000 2600,1250 2450,1500 2250,1500 2100,1250 " style="fill: white; stroke: #000; stroke-width: 5px; stroke-linejoin: miter" />	<text fill="#666" font-size="85" stroke="none" style="font-family: helvetica, arial" text-anchor="middle" x="2350" y="1090">0703
	</text>
	<polygon points="2600,1250 2800,1250 2950,1500 2800,1750 2600,1750 2450,1500 " style="fill: white; stroke: #000; stroke-width: 5px; stroke-linejoin: miter" />	<text fill="#666" font-size="85" stroke="none" style="font-family: helvetica, arial" text-anchor="middle" x="2700" y="1340">0803
	</text>
	<polygon points="150,1500 350,1500 500,1750 350,2000 150,2000 0,1750 " style="fill: white; stroke: #000; stroke-width: 5px; stroke-linejoin: miter" />	<text fill="#666" font-size="85" stroke="none" style="font-family: helvetica, arial" text-anchor="middle" x="250" y="1590">0104
	</text>
	<polygon points="500,1750 700,1750 850,2000 700,2250 500,2250 350,2000 " style="fill: white; stroke: #000; stroke-width: 5px; stroke-linejoin: miter" />	<text fill="#666" font-size="85" stroke="none" style="font-family: helvetica, arial" text-anchor="middle" x="600" y="1840">0204
	</text>
	<polygon points="850,1500 1050,1500 1200,1750 1050,2000 850,2000 700,1750 " style="fill: white; stroke: #000; stroke-width: 5px; stroke-linejoin: miter" />	<text fill="#666" font-size="85" stroke="none" style="font-family: helvetica, arial" text-anchor="middle" x="950" y="1590">0304
	</text>
	<polygon points="1200,1750 1400,1750 1550,2000 1400,2250 1200,2250 1050,2000 " style="fill: white; stroke: #000; stroke-width: 5px; stroke-linejoin: miter" />	<text fill="#666" font-size="85" stroke="none" style="font-family: helvetica, arial" text-anchor="middle" x="1300" y="1840">0404
	</text>
	<polygon points="1550,1500 1750,1500 1900,1750 1750,2000 1550,2000 1400,1750 " style="fill: white; stroke: #000; stroke-width: 5px; stroke-linejoin: miter" />	<text fill="#666" font-size="85" stroke="none" style="font-family: helvetica, arial" text-anchor="middle" x="1650" y="1590">0504
	</text>
	<polygon points="1900,1750 2100,1750 2250,2000 2100,2250 1900,2250 1750,2000 " style="fill: white; stroke: #000; stroke-width: 5px; stroke-linejoin: miter" />	<text fill="#666" font-size="85" stroke="none" style="font-family: helvetica, arial" text-anchor="middle" x="2000" y="1840">0604
	</text>
	<polygon points="2250,1500 2450,1500 2600,1750 2450,2000 2250,2000 2100,1750 " style="fill: white; stroke: #000; stroke-width: 5px; stroke-linejoin: miter" />	<text fill="#666" font-size="85" stroke="none" style="font-family: helvetica, arial" text-anchor="middle" x="2350" y="1590">0704
	</text>
	<polygon points="2600,1750 2800,1750 2950,2000 2800,2250 2600,2250 2450,2000 " style="fill: white; stroke: #000; stroke-width: 5px; stroke-linejoin: miter" />	<text fill="#666" font-size="85" stroke="none" style="font-family: helvetica, arial" text-anchor="middle" x="2700" y="1840">0804
	</text>
	<polygon points="150,2000 350,2000 500,2250 350,2500 150,2500 0,2250 " style="fill: white; stroke: #000; stroke-width: 5px; stroke-linejoin: miter" />	<text fill="#666" font-size="85" stroke="none" style="font-family: helvetica, arial" text-anchor="middle" x="250" y="2090">0105
	</text>
	<polygon points="500,2250 700,2250 850,2500 700,2750 500,2750 350,2500 " style="fill: white; stroke: #000; stroke-width: 5px; stroke-linejoin: miter" />	<text fill="#666" font-size="85" stroke="none" style="font-family: helvetica, arial" text-anchor="middle" x="600" y="2340">0205
	</text>
	<polygon points="850,2000 1050,2000 1200,2250 1050,2500 850,2500 700,2250 " style="fill: white; stroke: #000; stroke-width: 5px; stroke-linejoin: miter" />	<text fill="#666" font-size="85" stroke="none" style="font-family: helvetica, arial" text-anchor="middle" x="950" y="2090">0305
	</text>
	<polygon points="1200,2250 1400,2250 1550,2500 1400,2750 1200,2750 1050,2500 " style="fill: white; stroke: #000; stroke-width: 5px; stroke-linejoin: miter" />	<text fill="#666" font-size="85" stroke="none" style="font-family: helvetica, arial" text-anchor="middle" x="1300" y="2340">0405
	</text>
	<polygon points="1550,2000 1750,2000 1900,2250 1750,2500 1550,2500 1400,2250 " style="fill: white; stroke: #000; stroke-width: 5px; stroke-linejoin: miter" />	<text fill="#666" font-size="85" stroke="none" style="font-family: helvetica, arial" text-anchor="middle" x="1650" y="2090">0505
	</text>
	<polygon points="1900,2250 2100,2250 2250,2500 2100,2750 1900,2750 1750,2500 " style="fill: white; stroke: #000; stroke-width: 5px; stroke-linejoin: miter" />	<text fill="#666" font-size="85" stroke="none" style="font-family: helvetica, arial" text-anchor="middle" x="2000" y="2340">0605
	</text>
	<polygon points="2250,2000 2450,2000 2600,2250 2450,2500 2250,2500 2100,2250 " style="fill: white; stroke: #000; stroke-width: 5px; stroke-linejoin: miter" />	<text fill="#666" font-size="85" stroke="none" style="font-family: helvetica, arial" text-anchor="middle" x="2350" y="2090">0705
	</text>
	<polygon points="2600,2250 2800,2250 2950,2500 2800,2750 2600,2750 2450,2500 " style="fill: white; stroke: #000; stroke-width: 5px; stroke-linejoin: miter" />	<text fill="#666" font-size="85" stroke="none" style="font-family: helvetica, arial" text-anchor="middle" x="2700" y="2340">0805
	</text>
	<polygon points="150,2500 350,2500 500,2750 350,3000 150,3000 0,2750 " style="fill: white; stroke: #000; stroke-width: 5px; stroke-linejoin: miter" />	<text fill="#666" font-size="85" stroke="none" style="font-family: helvetica, arial" text-anchor="middle" x="250" y="2590">0106
	</text>
	<polygon points="500,2750 700,2750 850,3000 700,3250 500,3250 350,3000 " style="fill: white; stroke: #000; stroke-width: 5px; stroke-linejoin: miter" />	<text fill="#666" font-size="85" stroke="none" style="font-family: helvetica, arial" text-anchor="middle" x="600" y="2840">0206
	</text>
	<polygon points="850,2500 1050,2500 1200,2750 1050,3000 850,3000 700,2750 " style="fill: white; stroke: #000; stroke-width: 5px; stroke-linejoin: miter" />	<text fill="#666" font-size="85" stroke="none" style="font-family: helvetica, arial" text-anchor="middle" x="950" y="2590">0306
	</text>
	<polygon points="1200,2750 1400,2750 1550,3000 1400,3250 1200,3250 1050,3000 " style="fill: white; stroke: #000; stroke-width: 5px; stroke-linejoin: miter" />	<text fill="#666" font-size="85" stroke="none" style="font-family: helvetica, arial" text-anchor="middle" x="1300" y="2840">0406
	</text>
	<polygon points="1550,2500 1750,2500 1900,2750 1750,3000 1550,3000 1400,2750 " style="fill: white; stroke: #000; stroke-width: 5px; stroke-linejoin: miter" />	<text fill="#666" font-size="85" stroke="none" style="font-family: helvetica, arial" text-anchor="middle" x="1650" y="2590">0506
	</text>
	<polygon points="1900,2750 2100,2750 2250,3000 2100,3250 1900,3250 1750,3000 " style="fill: white; stroke: #000; stroke-width: 5px; stroke-linejoin: miter" />	<text fill="#666" font-size="85" stroke="none" style="font-family: helvetica, arial" text-anchor="middle" x="2000" y="2840">0606
	</text>
	<polygon points="2250,2500 2450,2500 2600,2750 2450,3000 2250,3000 2100,2750 " style="fill: white; stroke: #000; stroke-width: 5px; stroke-linejoin: miter" />	<text fill="#666" font-size="85" stroke="none" style="font-family: helvetica, arial" text-anchor="middle" x="2350" y="2590">0706
	</text>
	<polygon points="2600,2750 2800,2750 2950,3000 2800,3250 2600,3250 2450,3000 " style="fill: white; stroke: #000; stroke-width: 5px; stroke-linejoin: miter" />	<text fill="#666" font-size="85" stroke="none" style="font-family: helvetica, arial" text-anchor="middle" x="2700" y="2840">0806
	</text>
	<polygon points="150,3000 350,3000 500,3250 350,3500 150,3500 0,3250 " style="fill: white; stroke: #000; stroke-width: 5px; stroke-linejoin: miter" />	<text fill="#666" font-size="85" stroke="none" style="font-family: helvetica, arial" text-anchor="middle" x="250" y="3090">0107
	</text>
	<polygon points="500,3250 700,3250 850,3500 700,3750 500,3750 350,3500 " style="fill: white; stroke: #000; stroke-width: 5px; stroke-linejoin: miter" />	<text fill="#666" font-size="85" stroke="none" style="font-family: helvetica, arial" text-anchor="middle" x="600" y="3340">0207
	</text>
	<polygon points="850,3000 1050,3000 1200,3250 1050,3500 850,3500 700,3250 " style="fill: white; stroke: #000; stroke-width: 5px; stroke-linejoin: miter" />	<text fill="#666" font-size="85" stroke="none" style="font-family: helvetica, arial" text-anchor="middle" x="950" y="3090">0307
	</text>
	<polygon points="1200,3250 1400,3250 1550,3500 1400,3750 1200,3750 1050,3500 " style="fill: white; stroke: #000; stroke-width: 5px; stroke-linejoin: miter" />	<text fill="#666" font-size="85" stroke="none" style="font-family: helvetica, arial" text-anchor="middle" x="1300" y="3340">0407
	</text>
	<polygon points="1550,3000 1750,3000 1900,3250 1750,3500 1550,3500 1400,3250 " style="fill: white; stroke: #000; stroke-width: 5px; stroke-linejoin: miter" />	<text fill="#666" font-size="85" stroke="none" style="font-family: helvetica, arial" text-anchor="middle" x="1650" y="3090">0507
	</text>
	<polygon points="1900,3250 2100,3250 2250,3500 2100,3750 1900,3750 1750,3500 " style="fill: white; stroke: #000; stroke-width: 5px; stroke-linejoin: miter" />	<text fill="#666" font-size="85" stroke="none" style="font-family: helvetica, arial" text-anchor="middle" x="2000" y="3340">0607
	</text>
	<polygon points="2250,3000 2450,3000 2600,3250 2450,3500 2250,3500 2100,3250 " style="fill: white; stroke: #000; stroke-width: 5px; stroke-linejoin: miter" />	<text fill="#666" font-size="85" stroke="none" style="font-family: helvetica, arial" text-anchor="middle" x="2350" y="3090">0707
	</text>
	<polygon points="2600,3250 2800,3250 2950,3500 2800,3750 2600,3750 2450,3500 " style="fill: white; stroke: #000; stroke-width: 5px; stroke-linejoin: miter" />	<text fill="#666" font-size="85" stroke="none" style="font-family: helvetica, arial" text-anchor="middle" x="2700" y="3340">0807
	</text>
	<polygon points="150,3500 350,3500 500,3750 350,4000 150,4000 0,3750 " style="fill: white; stroke: #000; stroke-width: 5px; stroke-linejoin: miter" />	<text fill="#666" font-size="85" stroke="none" style="font-family: helvetica, arial" text-anchor="middle" x="250" y="3590">0108
	</text>
	<polygon points="500,3750 700,3750 850,4000 700,4250 500,4250 350,4000 " style="fill: white; stroke: #000; stroke-width: 5px; stroke-linejoin: miter" />	<text fill="#666" font-size="85" stroke="none" style="font-family: helvetica, arial" text-anchor="middle" x="600" y="3840">0208
	</text>
	<polygon points="850,3500 1050,3500 1200,3750 1050,4000 850,4000 700,3750 " style="fill: white; stroke: #000; stroke-width: 5px; stroke-linejoin: miter" />	<text fill="#666" font-size="85" stroke="none" style="font-family: helvetica, arial" text-anchor="middle" x="950" y="3590">0308
	</text>
	<polygon points="1200,3750 1400,3750 1550,4000 1400,4250 1200,4250 1050,4000 " style="fill: white; stroke: #000; stroke-width: 5px; stroke-linejoin: miter" />	<text fill="#666" font-size="85" stroke="none" style="font-family: helvetica, arial" text-anchor="middle" x="1300" y="3840">0408
	</text>
	<polygon points="1550,3500 1750,3500 1900,3750 1750,4000 1550,4000 1400,3750 " style="fill: white; stroke: #000; stroke-width: 5px; stroke-linejoin: miter" />	<text fill="#666" font-size="85" stroke="none" style="font-family: helvetica, arial" text-anchor="middle" x="1650" y="3590">0508
	</text>
	<polygon points="1900,3750 2100,3750 2250,4000 2100,4250 1900,4250 1750,4000 " style="fill: white; stroke: #000; stroke-width: 5px; stroke-linejoin: miter" />	<text fill="#666" font-size="85" stroke="none" style="font-family: helvetica, arial" text-anchor="middle" x="2000" y="3840">0608
	</text>
	<polygon points="2250,3500 2450,3500 2600,3750 2450,4000 2250,4000 2100,3750 " style="fill: white; stroke: #000; stroke-width: 5px; stroke-linejoin: miter" />	<text fill="#666" font-size="85" stroke="none" style="font-family: helvetica, arial" text-anchor="middle" x="2350" y="3590">0708
	</text>
	<polygon points="2600,3750 2800,3750 2950,4000 2800,4250 2600,4250 2450,4000 " style="fill: white; stroke: #000; stroke-width: 5px; stroke-linejoin: miter" />	<text fill="#666" font-size="85" stroke="none" style="font-family: helvetica, arial" text-anchor="middle" x="2700" y="3840">0808
	</text>
	<polygon points="150,4000 350,4000 500,4250 350,4500 150,4500 0,4250 " style="fill: white; stroke: #000; stroke-width: 5px; stroke-linejoin: miter" />	<text fill="#666" font-size="85" stroke="none" style="font-family: helvetica, arial" text-anchor="middle" x="250" y="4090">0109
	</text>
	<polygon points="500,4250 700,4250 850,4500 700,4750 500,4750 350,4500 " style="fill: white; stroke: #000; stroke-width: 5px; stroke-linejoin: miter" />	<text fill="#666" font-size="85" stroke="none" style="font-family: helvetica, arial" text-anchor="middle" x="600" y="4340">0209
	</text>
	<polygon points="850,4000 1050,4000 1200,4250 1050,4500 850,4500 700,4250 " style="fill: white; stroke: #000; stroke-width: 5px; stroke-linejoin: miter" />	<text fill="#666" font-size="85" stroke="none" style="font-family: helvetica, arial" text-anchor="middle" x="950" y="4090">0309
	</text>
	<polygon points="1200,4250 1400,4250 1550,4500 1400,4750 1200,4750 1050,4500 " style="fill: white; stroke: #000; stroke-width: 5px; stroke-linejoin: miter" />	<text fill="#666" font-size="85" stroke="none" style="font-family: helvetica, arial" text-anchor="middle" x="1300" y="4340">0409
	</text>
	<polygon points="1550,4000 1750,4000 1900,4250 1750,4500 1550,4500 1400,4250 " style="fill: white; stroke: #000; stroke-width: 5px; stroke-linejoin: miter" />	<text fill="#666" font-size="85" stroke="none" style="font-family: helvetica, arial" text-anchor="middle" x="1650" y="4090">0509
	</text>
	<polygon points="1900,4250 2100,4250 2250,4500 2100,4750 1900,4750 1750,4500 " style="fill: white; stroke: #000; stroke-width: 5px; stroke-linejoin: miter" />	<text fill="#666" font-size="85" stroke="none" style="font-family: helvetica, arial" text-anchor="middle" x="2000" y="4340">0609
	</text>
	<polygon points="2250,4000 2450,4000 2600,4250 2450,4500 2250,4500 2100,4250 " style="fill: white; stroke: #000; stroke-width: 5px; stroke-linejoin: miter" />	<text fill="#666" font-size="85" stroke="none" style="font-family: helvetica, arial" text-anchor="middle" x="2350" y="4090">0709
	</text>
	<polygon points="2600,4250 2800,4250 2950,4500 2800,4750 2600,4750 2450,4500 " style="fill: white; stroke: #000; stroke-width: 5px; stroke-linejoin: miter" />	<text fill="#666" font-size="85" stroke="none" style="font-family: helvetica, arial" text-anchor="middle" x="2700" y="4340">0809
	</text>
	<polygon points="150,4500 350,4500 500,4750 350,5000 150,5000 0,4750 " style="fill: white; stroke: #000; stroke-width: 5px; stroke-linejoin: miter" />	<text fill="#666" font-size="85" stroke="none" style="font-family: helvetica, arial" text-anchor="middle" x="250" y="4590">0110
	</text>
	<polygon points="500,4750 700,4750 850,5000 700,5250 500,5250 350,5000 " style="fill: white; stroke: #000; stroke-width: 5px; stroke-linejoin: miter" />	<text fill="#666" font-size="85" stroke="none" style="font-family: helvetica, arial" text-anchor="middle" x="600" y="4840">0210
	</text>
	<polygon points="850,4500 1050,4500 1200,4750 1050,5000 850,5000 700,4750 " style="fill: white; stroke: #000; stroke-width: 5px; stroke-linejoin: miter" />	<text fill="#666" font-size="85" stroke="none" style="font-family: helvetica, arial" text-anchor="middle" x="950" y="4590">0310
	</text>
	<polygon points="1200,4750 1400,4750 1550,5000 1400,5250 1200,5250 1050,5000 " style="fill: white; stroke: #000; stroke-width: 5px; stroke-linejoin: miter" />	<text fill="#666" font-size="85" stroke="none" style="font-family: helvetica, arial" text-anchor="middle" x="1300" y="4840">0410
	</text>
	<polygon points="1550,4500 1750,4500 1900,4750 1750,5000 1550,5000 1400,4750 " style="fill: white; stroke: #000; stroke-width: 5px; stroke-linejoin: miter" />	<text fill="#666" font-size="85" stroke="none" style="font-family: helvetica, arial" text-anchor="middle" x="1650" y="4590">0510
	</text>
	<polygon points="1900,4750 2100,4750 2250,5000 2100,5250 1900,5250 1750,5000 " style="fill: white; stroke: #000; stroke-width: 5px; stroke-linejoin: miter" />	<text fill="#666" font-size="85" stroke="none" style="font-family: helvetica, arial" text-anchor="middle" x="2000" y="4840">0610
	</text>
	<polygon points="2250,4500 2450,4500 2600,4750 2450,5000 2250,5000 2100,4750 " style="fill: white; stroke: #000; stroke-width: 5px; stroke-linejoin: miter" />	<text fill="#666" font-size="85" stroke="none" style="font-family: helvetica, arial" text-anchor="middle" x="2350" y="4590">0710
	</text>
	<polygon points="2600,4750 2800,4750 2950,5000 2800,5250 2600,5250 2450,5000 " style="fill: white; stroke: #000; stroke-width: 5px; stroke-linejoin: miter" />	<text fill="#666" font-size="85" stroke="none" style="font-family: helvetica, arial" text-anchor="middle" x="2700" y="4840">0810
	</text><!-- 
	Generated using the Perl SVG Module V2.36
	by Ronan Oger
	Info: http://www.roitsystems.com/
 -->
</svg>